Coordinates
version=1
nRows=38
nColumns=12
inDegrees=yes

Units are S.I. units (second, meters, Newtons, ...)
Angles are in degrees

endheader
time	SC_y	SC_z	SC_x	AC_y	AC_z	AC_x	GH_y	GH_z	GH_yy	EL_x	PS_y
       0.0              -13.27          38.85          61.06          66.14         -9.763         -7.752          166.0          16.54         -25.41          119.1          123.3
  0.002812              -13.27          38.84          61.06          66.14         -9.763         -7.753          166.0          16.54         -25.38          119.1          123.2
  0.005623              -13.27          38.84          61.06          66.14         -9.762         -7.754          165.9          16.54         -25.35          119.1          123.2
  0.008435              -13.27          38.84          61.06          66.14         -9.762         -7.756          165.9          16.54         -25.32          119.1          123.2
   0.01125              -13.27          38.83          61.06          66.14         -9.761         -7.757          165.9          16.54         -25.29          119.1          123.2
   0.01406              -13.27          38.83          61.06          66.14         -9.761         -7.759          165.8          16.54         -25.25          119.0          123.2
   0.01687              -13.27          38.83          61.05          66.13          -9.76          -7.76          165.8          16.54         -25.21          119.0          123.1
   0.01968              -13.28          38.82          61.05          66.13          -9.76         -7.762          165.7          16.54         -25.17          119.0          123.1
   0.02249              -13.28          38.82          61.05          66.13         -9.759         -7.764          165.7          16.54         -25.12          119.0          123.1
    0.0253              -13.28          38.81          61.05          66.13         -9.758         -7.766          165.6          16.54         -25.08          119.0          123.1
   0.02812              -13.28          38.81          61.05          66.13         -9.757         -7.768          165.6          16.54         -25.03          118.9          123.0
   0.03093              -13.28           38.8          61.04          66.12         -9.756         -7.771          165.5          16.54         -24.97          118.9          123.0
   0.03374              -13.28          38.79          61.04          66.12         -9.756         -7.773          165.5          16.54         -24.91          118.9          123.0
   0.03655              -13.28          38.79          61.04          66.12         -9.755         -7.776          165.4          16.54         -24.85          118.8          122.9
   0.03936              -13.29          38.78          61.04          66.11         -9.753         -7.779          165.3          16.54         -24.78          118.8          122.9
   0.04217              -13.29          38.77          61.03          66.11         -9.752         -7.782          165.2          16.54         -24.71          118.8          122.8
   0.04499              -13.29          38.76          61.03          66.11         -9.751         -7.786          165.2          16.54         -24.62          118.7          122.8
    0.0478              -13.29          38.75          61.02           66.1          -9.75         -7.789          165.1          16.54         -24.54          118.7          122.7
   0.05061               -13.3          38.74          61.02           66.1         -9.748         -7.794          165.0          16.54         -24.44          118.6          122.7
   0.05342               -13.3          38.73          61.02           66.1         -9.746         -7.798          164.8          16.54         -24.33          118.6          122.6
   0.05623               -13.3          38.71          61.01          66.09         -9.745         -7.803          164.7          16.54         -24.22          118.5          122.6
   0.05904              -13.31           38.7          61.01          66.08         -9.743         -7.809          164.6          16.54         -24.09          118.5          122.5
   0.06186              -13.31          38.68           61.0          66.08          -9.74         -7.815          164.4          16.54         -23.95          118.4          122.4
   0.06467              -13.31          38.67          60.99          66.07         -9.738         -7.822          164.3          16.54         -23.79          118.3          122.3
   0.06748              -13.32          38.65          60.99          66.06         -9.735         -7.829          164.1          16.54         -23.62          118.2          122.2
   0.07029              -13.32          38.62          60.98          66.06         -9.732         -7.837          163.9          16.54         -23.42          118.1          122.1
    0.0731              -13.33           38.6          60.97          66.05         -9.729         -7.847          163.7          16.54          -23.2          118.0          122.0
   0.07591              -13.34          38.57          60.96          66.04         -9.725         -7.857          163.4          16.55         -22.96          117.9          121.8
   0.07873              -13.35          38.54          60.94          66.02          -9.72         -7.869          163.1          16.55         -22.68          117.8          121.6
   0.08154              -13.35          38.51          60.93          66.01         -9.715         -7.883          162.8          16.55         -22.37          117.6          121.5
   0.08435              -13.36          38.47          60.92          65.99          -9.71         -7.898          162.4          16.55         -22.01          117.4          121.3
   0.08716              -13.38          38.42           60.9          65.98         -9.703         -7.916          162.0          16.55          -21.6          117.2          121.0
   0.08997              -13.39          38.37          60.88          65.96         -9.696         -7.936          161.4          16.55         -21.12          117.0          120.7
   0.09278               -13.4           38.3          60.85          65.93         -9.687          -7.96          160.9          16.55         -20.57          116.7          120.4
    0.0956              -13.42          38.23          60.82           65.9         -9.677         -7.988          160.2          16.56         -19.92          116.4          120.0
   0.09841              -13.44          38.14          60.79          65.87         -9.665         -8.021          159.4          16.56         -19.16          116.1          119.6
    0.1012              -13.47          38.04          60.75          65.83          -9.65          -8.06          158.4          16.56         -18.26          115.6          119.0
     0.104               -13.5          37.92          60.71          65.79         -9.633         -8.106          157.3          16.57         -17.17          115.1          118.4
